<svg width="34" height="34" viewBox="0 0 34 34" fill="none" xmlns="http://www.w3.org/2000/svg">
<g clip-path="url(#clip0_732_78)">
<mask id="mask0_732_78" style="mask-type:alpha" maskUnits="userSpaceOnUse" x="0" y="0" width="34" height="34">
<circle cx="16.8067" cy="16.8067" r="16.8067" fill="#F578A5"/>
</mask>
<g mask="url(#mask0_732_78)">
<circle cx="16.8067" cy="16.8067" r="16.8067" fill="#56B280"/>
<path d="M24.3237 25.7153C24.924 25.7358 25.3997 26.228 25.3999 26.8286V33.7378H9.07666V26.3481C9.07688 25.7179 9.59903 25.2134 10.229 25.2349L24.3237 25.7153Z" fill="white" stroke="white" stroke-width="0.735294"/>
<g clip-path="url(#clip1_732_78)">
<path d="M12.3141 11.8014C15.7392 7.03912 14.2659 3.1628 14.2701 3.1582C14.1975 2.96407 14.296 2.74788 14.4901 2.67525C14.588 2.63862 14.6968 2.64453 14.7902 2.6915C20.9719 5.64949 23.632 9.468 24.1414 12.9204C24.3439 14.2617 24.2173 15.6321 23.7726 16.9137C23.365 18.0962 22.6861 19.1668 21.7903 20.0396C20.0671 21.7038 17.659 22.4709 15.2823 21.6932C14.6744 21.4948 14.1007 21.2038 13.5815 20.8304C12.5401 20.083 11.7501 19.037 11.3162 17.8307C10.8557 16.5406 10.8411 15.1335 11.2746 13.8341C11.514 13.1068 11.8647 12.4212 12.3141 11.8014Z" fill="white"/>
<path d="M14.3454 3.28146C14.1948 3.13904 14.1882 2.90153 14.3306 2.75099C14.473 2.60045 14.7105 2.59381 14.8611 2.73622C14.8721 2.7467 14.8825 2.75784 14.8923 2.76959C14.906 2.78201 17.8906 5.91047 18.317 11.9571L18.3214 12.0138C18.4135 13.4271 18.368 14.846 18.1858 16.2504L20.2266 14.6864C20.3975 14.5692 20.6311 14.6128 20.7483 14.7837C20.8544 14.9384 20.8299 15.1477 20.691 15.2738L18.0239 17.3115C17.4268 20.8219 15.3219 25.788 18.1083 28.8962C18.2425 29.0541 18.2233 29.2909 18.0654 29.4251C17.915 29.5529 17.6915 29.5424 17.5537 29.4012C14.2124 25.6768 16.6437 21.0629 17.3091 17.073L17.3179 17.0171C17.5885 15.4294 17.6812 13.8164 17.5944 12.2082L15.1955 10.4505C15.0244 10.3336 14.9805 10.1001 15.0975 9.92896C15.2144 9.75786 15.448 9.71398 15.6191 9.83093C15.6261 9.83578 15.6331 9.84085 15.6398 9.8462L17.4985 11.2146C16.9187 5.97305 14.3562 3.29403 14.3454 3.28146Z" fill="#56B280"/>
</g>
</g>
</g>
<defs>
<clipPath id="clip0_732_78">
<rect width="33.6134" height="33.6134" fill="white"/>
</clipPath>
<clipPath id="clip1_732_78">
<rect width="20.6274" height="20.6274" fill="white" transform="translate(1.98145 16.4658) rotate(-48)"/>
</clipPath>
</defs>
</svg>
